<svg id="_x31__px" enable-background="new 0 0 24 24" height="512" viewBox="0 0 24 24" width="512" xmlns="http://www.w3.org/2000/svg"><g><path d="m12 24c-4.962 0-9-4.038-9-9 0-2.136.76-4.204 2.139-5.824.095-.112.235-.176.381-.176h12.96c.146 0 .286.064.381.176 1.379 1.62 2.139 3.688 2.139 5.824 0 4.962-4.038 9-9 9zm-6.245-14c-1.133 1.412-1.755 3.178-1.755 5 0 4.411 3.589 8 8 8s8-3.589 8-8c0-1.822-.622-3.588-1.755-5z"/></g><g><path d="m16.24 7h-8.48c-.21 0-.398-.132-.47-.33-.193-.532-.29-1.093-.29-1.67 0-2.757 2.243-5 5-5s5 2.243 5 5c0 .577-.097 1.138-.29 1.67-.071.198-.259.33-.47.33zm-8.113-1h7.745c.085-.323.128-.658.128-1 0-2.206-1.794-4-4-4s-4 1.794-4 4c0 .342.043.677.127 1z"/></g><g><path d="m12 5c-.827 0-1.5-.673-1.5-1.5s.673-1.5 1.5-1.5 1.5.673 1.5 1.5-.673 1.5-1.5 1.5zm0-2c-.276 0-.5.224-.5.5s.224.5.5.5.5-.224.5-.5-.224-.5-.5-.5z"/></g><g><path d="m17.764 21.281c-1.579-1.432-3.626-2.221-5.764-2.221s-4.185.789-5.764 2.221l-.672-.741c1.763-1.599 4.049-2.48 6.436-2.48s4.673.881 6.436 2.479z"/></g><g><path d="m15.5 15h-7c-.827 0-1.5-.673-1.5-1.5v-4h1v4c0 .276.224.5.5.5h7c.276 0 .5-.224.5-.5v-4h1v4c0 .827-.673 1.5-1.5 1.5z"/></g></svg>